<svg width="117" height="36" viewBox="0 0 117 36" fill="none" xmlns="http://www.w3.org/2000/svg">
<path d="M50.4561 10.7706H53.2383V24H50.4561V18.5618H44.7896V24H42.0073V10.7706H44.7896V16.1722H50.4561V10.7706Z" fill="white"/>
<path d="M60.7504 24.1831C59.7365 24.1831 58.8369 23.9908 58.0516 23.6063C57.2664 23.2218 56.6482 22.6572 56.1968 21.9126C55.7517 21.168 55.5291 20.2921 55.5291 19.285C55.5291 17.7775 56.0113 16.5873 56.9758 15.7145C57.9404 14.8417 59.1986 14.4053 60.7504 14.4053C62.3085 14.4053 63.5698 14.8417 64.5343 15.7145C65.4988 16.5873 65.9811 17.7775 65.9811 19.285C65.9811 20.7987 65.4988 21.995 64.5343 22.8739C63.5698 23.7467 62.3085 24.1831 60.7504 24.1831ZM60.7226 22.0865C61.5016 22.0865 62.1292 21.8302 62.6053 21.3175C63.0875 20.8048 63.3287 20.1273 63.3287 19.285C63.3287 18.4427 63.0875 17.7653 62.6053 17.2526C62.1292 16.7399 61.5016 16.4835 60.7226 16.4835C59.9745 16.4835 59.3624 16.7429 58.8863 17.2617C58.4164 17.7744 58.1815 18.4489 58.1815 19.285C58.1815 20.1212 58.4164 20.7987 58.8863 21.3175C59.3624 21.8302 59.9745 22.0865 60.7226 22.0865Z" fill="white"/>
<path d="M74.2907 14.5884H76.9617V24H74.4298L74.3649 22.8647C73.6601 23.7437 72.6492 24.1831 71.3323 24.1831C70.1884 24.1831 69.3105 23.9023 68.6984 23.3408C68.0863 22.7732 67.7803 21.9675 67.7803 20.9238V14.5884H70.4605V20.3562C70.4605 20.9421 70.6182 21.3724 70.9335 21.6471C71.255 21.9218 71.6692 22.0591 72.1762 22.0591C72.7945 22.0591 73.2984 21.8821 73.6879 21.5281C74.0836 21.168 74.2845 20.5851 74.2907 19.7794V14.5884Z" fill="white"/>
<path d="M86.6903 14.5884L82.4984 21.9675H86.5605V24H78.7052L82.8786 16.6208H79.0298V14.5884H86.6903Z" fill="white"/>
<path d="M89.8899 13.1785C89.4633 13.1785 89.0985 13.032 88.7955 12.739C88.4926 12.4399 88.3411 12.0798 88.3411 11.6587C88.3411 11.2437 88.4926 10.8896 88.7955 10.5967C89.1047 10.2976 89.4695 10.1481 89.8899 10.1481C90.3041 10.1481 90.6627 10.2976 90.9657 10.5967C91.2686 10.8896 91.4201 11.2437 91.4201 11.6587C91.4201 12.0798 91.2686 12.4399 90.9657 12.739C90.6627 13.032 90.3041 13.1785 89.8899 13.1785ZM88.5266 24V14.5884H91.2161V24H88.5266Z" fill="white"/>
<path d="M99.6092 14.4053C100.753 14.4053 101.631 14.6891 102.243 15.2567C102.855 15.8182 103.161 16.6208 103.161 17.6646V24H100.481V18.2322C100.481 17.6401 100.32 17.2068 99.9987 16.9321C99.6834 16.6575 99.2753 16.5201 98.7745 16.5201C98.484 16.5201 98.2181 16.5598 97.977 16.6392C97.7358 16.7185 97.5133 16.8436 97.3092 17.0145C97.1052 17.1793 96.9444 17.4143 96.827 17.7195C96.7157 18.0247 96.6569 18.3878 96.6508 18.809V24H93.9798V14.5884H96.6508V15.6321C97.3556 14.8142 98.3418 14.4053 99.6092 14.4053Z" fill="white"/>
<path d="M112.324 14.5884H114.865V23.295C114.865 24.1923 114.745 24.9735 114.504 25.6388C114.269 26.3041 113.925 26.8381 113.474 27.241C113.023 27.6499 112.494 27.952 111.888 28.1473C111.282 28.3427 110.59 28.4403 109.811 28.4403C107.294 28.4403 105.656 27.4668 104.896 25.5198L107.112 24.5859C107.384 25.2024 107.727 25.6571 108.141 25.9501C108.556 26.243 109.078 26.3895 109.709 26.3895C111.36 26.3895 112.185 25.4221 112.185 23.4873V22.3887C111.901 22.7732 111.499 23.0845 110.979 23.3225C110.466 23.5544 109.904 23.6704 109.291 23.6704C108.704 23.6704 108.145 23.5605 107.613 23.3408C107.087 23.115 106.627 22.8037 106.231 22.407C105.835 22.0042 105.52 21.5098 105.285 20.9238C105.056 20.3379 104.942 19.7031 104.942 19.0195C104.942 18.3298 105.056 17.6951 105.285 17.1152C105.52 16.5293 105.835 16.041 106.231 15.6504C106.633 15.2598 107.097 14.9546 107.622 14.7349C108.154 14.5151 108.716 14.4053 109.31 14.4053C109.965 14.4053 110.553 14.5365 111.072 14.799C111.598 15.0553 111.993 15.4001 112.259 15.8335L112.324 14.5884ZM108.225 20.814C108.701 21.2961 109.285 21.5372 109.978 21.5372C110.67 21.5372 111.254 21.2931 111.731 20.8048C112.207 20.3165 112.445 19.7214 112.445 19.0195C112.445 18.3115 112.207 17.7134 111.731 17.2251C111.261 16.7368 110.676 16.4927 109.978 16.4927C109.273 16.4927 108.686 16.7338 108.216 17.2159C107.752 17.692 107.52 18.2932 107.52 19.0195C107.52 19.7336 107.755 20.3318 108.225 20.814Z" fill="white"/>
<path d="M7.32205 17.7038V10.4231L15.1946 5.96333C17.8217 7.44993 20.443 8.93653 23.0672 10.4231V21.6982H8.94887H1.63392C1.36661 21.1001 1.09356 20.5106 0.872243 19.8984C-0.036018 17.385 -0.234341 14.6827 0.274401 12.0846C0.826255 9.25247 2.22026 6.55289 4.45068 4.36671C7.41977 1.45557 11.3086 0 15.1946 0C19.0863 0 22.9752 1.45557 25.9385 4.36671C28.9047 7.28068 30.3879 11.0973 30.3879 14.9111C30.3879 18.7278 28.9047 22.5473 25.9385 25.4556L15.1946 36L4.45068 25.4584C3.99655 25.0127 3.56541 24.5331 3.17164 24.0339H6.35918L15.1946 32.708L24.2628 23.8082C26.7634 21.354 28.0166 18.1298 28.0166 14.9111C28.0166 11.6925 26.7634 8.47109 24.2628 6.0141C21.7594 3.5543 18.4741 2.32722 15.1946 2.32722C11.9151 2.32722 8.6327 3.55712 6.12924 6.01128C4.24373 7.86178 3.07104 10.1354 2.60541 12.5162C2.15703 14.7955 2.35823 17.1678 3.20038 19.3625H20.693V11.7602C18.8564 10.7193 17.0255 9.68124 15.1946 8.64316L9.69905 11.7602V17.7094H7.32205V17.7038Z" fill="white"/>
</svg>
